<svg xmlns="http://www.w3.org/2000/svg" viewBox="0 0 64 64">
  <defs>
    <linearGradient id="bg" x1="0%" y1="0%" x2="100%" y2="100%">
      <stop offset="0%" stop-color="#8B3DFF"/>
      <stop offset="100%" stop-color="#00F5FF"/>
    </linearGradient>
    <linearGradient id="mark" x1="0%" y1="0%" x2="100%" y2="100%">
      <stop offset="0%" stop-color="#F6F7FB"/>
      <stop offset="100%" stop-color="#D9F9FF"/>
    </linearGradient>
  </defs>
  <rect width="64" height="64" rx="16" fill="#0A0E1A"/>
  <rect x="4" y="4" width="56" height="56" rx="14" fill="url(#bg)" opacity="0.18"/>
  <path
    d="M42 22.5c-2.1-2.6-5.1-4-9.1-4-5.7 0-9.7 2.8-9.7 7.3 0 4 3 5.8 8.7 6.7 4.4.7 5.8 1.5 5.8 3.3 0 2-1.9 3.3-5 3.3-3.4 0-6.3-1.2-8.9-3.8M23.2 41.6c2.4 2.7 5.8 4.1 10 4.1 6.2 0 10.3-3 10.3-7.7 0-4.3-2.7-6-8.9-7-4.1-.6-5.5-1.3-5.5-3 0-1.8 1.6-2.9 4.3-2.9 2.9 0 5.5 1 7.6 3.1"
    fill="none"
    stroke="url(#mark)"
    stroke-width="5"
    stroke-linecap="round"
    stroke-linejoin="round"
  />
  <circle cx="49" cy="15" r="3" fill="#00F5FF"/>
</svg>
